<svg width="186" height="51" viewBox="0 0 186 51" fill="none" xmlns="http://www.w3.org/2000/svg">
<g clip-path="url(#clip0_32_873)">
<path fill-rule="evenodd" clip-rule="evenodd" d="M25 50.5C38.8071 50.5 50 39.3071 50 25.5C50 19.2876 47.734 13.6045 43.9836 9.23204L44.0317 9.18389L43.0394 8.19157C42.8008 7.94293 42.557 7.69922 42.3084 7.4606L41.3121 6.46425L41.2636 6.51271C36.8917 2.76445 31.2103 0.5 25 0.5C11.1929 0.5 0 11.6929 0 25.5C0 31.7103 2.26445 37.3917 6.0127 41.7636L5.95674 41.8196L8.67638 44.5392L8.73204 44.4836C13.1045 48.2341 18.7876 50.5 25 50.5ZM8.67638 41.8196C10.0362 43.1794 10.0363 43.1793 10.0364 43.1792L10.0399 43.1757L10.0509 43.1647L10.0947 43.1209L10.2668 42.9488L10.9311 42.2845L13.3959 39.8197L21.715 31.5006L42.6719 10.5437L43.9836 9.23204C43.6785 8.87641 43.3636 8.52944 43.0394 8.19157L42.3084 7.4606C41.9692 7.13502 41.6207 6.81891 41.2636 6.51271L39.9522 7.82407L18.9953 28.781L10.6762 37.1001L8.21148 39.5648L7.54716 40.2292L7.37507 40.4013L7.33129 40.445L7.32025 40.4561L7.31748 40.4588C7.31733 40.459 7.31656 40.4598 8.67638 41.8196ZM8.67638 41.8196L10.0364 43.1792L8.73204 44.4836C7.75762 43.6478 6.84829 42.7382 6.0127 41.7636L7.31656 40.4598L8.67638 41.8196Z" fill="#1e1e1e"/>
<mask id="mask0_32_873" style="mask-type:luminance" maskUnits="userSpaceOnUse" x="65" y="0" width="121" height="51">
<path d="M186 0.5H65V50.5H186V0.5Z" fill="white"/>
</mask>
<g mask="url(#mask0_32_873)">
<path d="M71.0325 37.2501H65.1445L74.1045 14.8501H79.3205L88.4405 37.2501H82.2005L80.9205 33.9541H72.3125L71.0325 37.2501ZM74.0405 29.3141H79.2245L76.6325 21.7941L74.0405 29.3141ZM95.6635 21.0901L96.0795 24.4181C97.4555 22.7861 99.4395 21.6021 101.2 21.0901L101.68 26.5301C99.6635 26.5621 97.8395 27.0421 96.3355 28.0981V37.2501H91.1195V27.3621L90.4475 21.5701L95.6635 21.0901ZM105.44 31.2341V25.7301H103.264V21.2501H105.568L105.92 17.3461L110.656 16.8981V21.2501H115.328L114.848 25.7301H110.656V30.7541C110.656 32.1301 111.232 32.7701 112.224 32.7701C112.8 32.7701 113.632 32.6101 114.496 32.0981L116.288 36.2261C114.912 37.1221 113.216 37.5701 111.392 37.5701C107.84 37.5701 105.44 35.6501 105.44 31.2341ZM121.398 19.6181C119.734 19.6181 118.39 18.2421 118.39 16.5781C118.39 14.9141 119.734 13.5701 121.398 13.5701C123.094 13.5701 124.438 14.9141 124.438 16.5781C124.438 18.2421 123.094 19.6181 121.398 19.6181ZM124.022 21.0901V37.2501H118.806V21.5701L124.022 21.0901ZM133.876 26.5941L136.02 27.1061C139.06 27.8421 140.628 29.4101 140.628 32.1621C140.628 35.3941 138.26 37.5701 133.94 37.5701C131.444 37.5701 129.012 36.9621 126.996 35.7781L128.692 32.0021C130.484 32.8981 132.212 33.4101 133.78 33.4101C134.836 33.4101 135.348 33.1541 135.348 32.5781C135.348 32.0661 135.124 31.9061 134.228 31.6821L132.084 31.1701C129.012 30.4341 127.476 28.8981 127.476 26.3381C127.476 23.1061 129.812 20.9301 134.004 20.9301C136.436 20.9301 138.58 21.6021 140.468 22.7221L138.772 26.4981C137.108 25.5381 135.668 25.0901 134.132 25.0901C133.204 25.0901 132.756 25.3141 132.756 25.7621C132.756 26.2101 133.012 26.4021 133.876 26.5941ZM144.065 31.2341V25.7301H141.889V21.2501H144.193L144.545 17.3461L149.281 16.8981V21.2501H153.953L153.473 25.7301H149.281V30.7541C149.281 32.1301 149.857 32.7701 150.849 32.7701C151.425 32.7701 152.257 32.6101 153.121 32.0981L154.913 36.2261C153.537 37.1221 151.841 37.5701 150.017 37.5701C146.465 37.5701 144.065 35.6501 144.065 31.2341ZM162.007 21.0901L162.423 24.4181C163.799 22.7861 165.783 21.6021 167.543 21.0901L168.023 26.5301C166.007 26.5621 164.183 27.0421 162.679 28.0981V37.2501H157.463V27.3621L156.791 21.5701L162.007 21.0901ZM169.91 39.8101C172.47 39.8101 173.782 39.2021 174.358 37.7941L174.486 37.4421L168.438 21.2501H174.038L177.014 30.8181L180.118 21.2501H185.526L181.334 32.4821L179.35 37.7941C177.718 42.2101 175.318 44.2261 171.19 44.6101L169.91 39.8101Z" fill="#1e1e1e"/>
</g>
</g>
<defs>
<clipPath id="clip0_32_873">
<rect width="186" height="50" fill="white" transform="translate(0 0.5)"/>
</clipPath>
</defs>
</svg>
