<svg width="26" height="27" viewBox="0 0 26 27" fill="none" xmlns="http://www.w3.org/2000/svg">
<path d="M2.3704 2.41674L1.66343 1.7095L1.66343 1.7095L2.3704 2.41674ZM8.98729 2.41674L9.69426 1.7095L8.98729 2.41674ZM8.98729 9.03105L8.28032 8.3238L8.28032 8.3238L8.98729 9.03105ZM17.0221 17.0627L16.3151 16.3555L16.3151 16.3555L17.0221 17.0627ZM23.639 23.677L22.932 22.9698L22.932 22.9698L23.639 23.677ZM7.09675 18.9525L6.38978 19.6597L7.09675 18.9525ZM1.02477 6.20601L2.02476 6.20034C2.02457 6.16799 2.02282 6.13567 2.0195 6.10349L1.02477 6.20601ZM19.8482 25.0221L19.9507 24.0274C19.9185 24.0241 19.8862 24.0223 19.8539 24.0221L19.8482 25.0221ZM6.42157 10.342L6.26372 9.35449C5.94383 9.40563 5.66852 9.60856 5.52503 9.899C5.38153 10.1894 5.38762 10.5314 5.54136 10.8165L6.42157 10.342ZM15.7107 19.6274L15.2364 20.5078C15.5215 20.6614 15.8634 20.6674 16.1537 20.5239C16.4441 20.3804 16.6469 20.1052 16.6981 19.7854L15.7107 19.6274ZM3.07737 3.12399C4.51408 1.68784 6.84361 1.68784 8.28032 3.12399L9.69426 1.7095C7.47656 -0.507333 3.88113 -0.507333 1.66343 1.7095L3.07737 3.12399ZM8.28032 3.12399C9.71682 4.55992 9.71682 6.88787 8.28032 8.3238L9.69426 9.73829C11.9122 7.52125 11.9122 3.92654 9.69426 1.7095L8.28032 3.12399ZM17.7291 17.7699C19.1658 16.3338 21.4953 16.3338 22.932 17.7699L24.3459 16.3555C22.1282 14.1386 18.5328 14.1386 16.3151 16.3555L17.7291 17.7699ZM22.932 17.7699C24.3685 19.2059 24.3685 21.5338 22.932 22.9698L24.3459 24.3843C26.5638 22.1672 26.5638 18.5725 24.3459 16.3555L22.932 17.7699ZM7.80372 18.2453C4.02573 14.4687 2.04593 9.93032 2.02476 6.20034L0.0247903 6.21169C0.0496026 10.5834 2.32956 15.6011 6.38978 19.6597L7.80372 18.2453ZM2.0195 6.10349C1.9097 5.0381 2.26279 3.93825 3.07737 3.12399L1.66343 1.7095C0.405133 2.96731 -0.138858 4.66978 0.0300436 6.30854L2.0195 6.10349ZM22.932 22.9698C22.1174 23.7841 21.0169 24.1372 19.9507 24.0274L19.7458 26.0169C21.3848 26.1856 23.0877 25.642 24.3459 24.3843L22.932 22.9698ZM19.8539 24.0221C16.1221 24.001 11.5817 22.0218 7.80372 18.2453L6.38978 19.6597C10.45 23.7184 15.4695 25.9973 19.8425 26.0221L19.8539 24.0221ZM8.28032 8.3238C7.71016 8.89374 7.00206 9.23646 6.26372 9.35449L6.57942 11.3294C7.71972 11.1471 8.81629 10.6159 9.69426 9.73829L8.28032 8.3238ZM11.1122 14.9381C9.52392 13.3505 8.24715 11.6207 7.30178 9.86737L5.54136 10.8165C6.58181 12.7462 7.97674 14.6318 9.69823 16.3526L11.1122 14.9381ZM16.6981 19.7854C16.8161 19.0476 17.1589 18.3399 17.7291 17.7699L16.3151 16.3555C15.4371 17.2331 14.9056 18.3294 14.7232 19.4694L16.6981 19.7854ZM16.185 18.7471C14.4309 17.802 12.7004 16.5257 11.1122 14.9381L9.69823 16.3526C11.4197 18.0734 13.306 19.4678 15.2364 20.5078L16.185 18.7471Z" fill="#1E1E1E"/>
</svg>
