<svg width="18" height="20" viewBox="0 0 18 20" fill="none" xmlns="http://www.w3.org/2000/svg">
<path d="M13.5 6V5.5C13.5 3.01472 11.4853 1 9 1V1C6.51472 1 4.5 3.01472 4.5 5.5V6M7.72164 19H10.2784C11.871 19 12.6673 19 13.3389 18.7842C14.4634 18.4227 15.4006 17.6338 15.9485 16.5874C16.2757 15.9625 16.4115 15.1778 16.6831 13.6085V13.6085C17.0536 11.4683 17.2388 10.3982 17.0499 9.53655C16.7329 8.09006 15.7245 6.89214 14.3532 6.33305C13.5364 6 12.4504 6 10.2784 6H7.72163C5.54962 6 4.46362 6 3.64677 6.33305C2.27554 6.89214 1.26714 8.09006 0.950096 9.53655C0.761231 10.3982 0.946441 11.4683 1.31686 13.6085V13.6085C1.58847 15.1778 1.72428 15.9625 2.0515 16.5874C2.59937 17.6338 3.53665 18.4227 4.66109 18.7842C5.33265 19 6.12898 19 7.72164 19Z" stroke="#1E1E1E" stroke-width="1.5" stroke-linecap="round" stroke-linejoin="round"/>
</svg>
