<svg width="164" height="51" viewBox="0 0 164 51" fill="none" xmlns="http://www.w3.org/2000/svg">
<g clip-path="url(#clip0_32_880)">
<path fill-rule="evenodd" clip-rule="evenodd" d="M16.1959 2.10059C9.51036 4.64296 4.14313 10.0102 1.69492 16.6957C0.659134 19.5205 0.094162 22.5337 0 25.4528C0 28.4659 0.564972 31.4791 1.60075 34.304L24.9529 10.9518L16.1959 2.10059Z" fill="#1e1e1e"/>
<path opacity="0.5" fill-rule="evenodd" clip-rule="evenodd" d="M24.9528 0.5C21.9396 0.5 18.9264 1.06497 16.1016 2.10075L24.9528 10.952L39.5479 25.4529L48.305 16.6017C45.7626 10.0104 40.4895 4.64313 33.804 2.10075C30.9792 1.06497 27.966 0.5 24.9528 0.5Z" fill="#1e1e1e"/>
<path opacity="0.5" fill-rule="evenodd" clip-rule="evenodd" d="M10.4528 25.4529L1.60156 34.3041C4.14393 40.9896 9.417 46.2627 16.1967 48.805C19.0215 49.8408 22.0347 50.4058 25.0479 50.4058C28.0611 50.4058 31.0743 49.8408 33.8991 48.805L24.9538 40.048L10.4528 25.4529Z" fill="#1e1e1e"/>
<path fill-rule="evenodd" clip-rule="evenodd" d="M48.3053 16.6958L39.5482 25.4529L24.9531 40.048L33.8044 48.8992C40.4898 46.2627 45.7629 40.9896 48.3053 34.3041C49.3411 31.4792 49.906 28.466 49.906 25.4529C50.0002 22.4397 49.4352 19.5207 48.3053 16.6958Z" fill="#1e1e1e"/>
<mask id="mask0_32_880" style="mask-type:luminance" maskUnits="userSpaceOnUse" x="65" y="0" width="99" height="51">
<path d="M164 0.5H65V50.5H164V0.5Z" fill="white"/>
</mask>
<g mask="url(#mask0_32_880)">
<path d="M65.0469 37.0001V15.3001H73.1689C79.6789 15.3001 84.6389 20.0121 84.6389 26.1811C84.6389 32.3191 79.6789 37.0001 73.1689 37.0001H65.0469ZM69.2009 33.3111H73.1689C77.1989 33.3111 80.3609 30.2111 80.3609 26.1811C80.3609 22.1201 77.1989 18.9891 73.1689 18.9891H69.2009V33.3111ZM95.3448 37.3101C90.5088 37.3101 86.7888 33.6521 86.7888 28.9711C86.7888 24.3211 90.3848 20.6941 94.9728 20.6941C99.4988 20.6941 102.878 24.3521 102.878 29.2501V30.2731H90.7568C91.2838 32.4431 93.1438 33.9931 95.5308 33.9931C96.9878 33.9931 98.3208 33.4971 99.1888 32.6601L101.762 35.0471C99.8088 36.5971 97.8558 37.3101 95.3448 37.3101ZM90.7258 27.4521H99.0028C98.5378 25.4061 96.8948 23.9491 94.8798 23.9491C92.8028 23.9491 91.2218 25.3131 90.7258 27.4521ZM102.658 37.0001L108.827 28.8161L102.844 20.9421H107.432L111.121 25.9331L114.81 20.9421H119.212L113.291 28.7541L119.584 37.0001H114.996L111.028 31.6681L107.06 37.0001H102.658ZM123.241 18.8341C121.97 18.8341 120.947 17.8111 120.947 16.5711C120.947 15.3001 121.97 14.3081 123.241 14.3081C124.481 14.3081 125.504 15.3001 125.504 16.5711C125.504 17.8111 124.481 18.8341 123.241 18.8341ZM121.257 37.0001V20.9421H125.194V37.0001H121.257ZM136.673 43.6341C134.224 43.6341 131.899 43.1071 130.039 42.1461L131.434 39.0771C133.232 39.9761 134.875 40.3791 136.58 40.3791C139.153 40.3791 140.517 39.2321 140.517 37.0001V35.5741C139.215 36.5661 137.665 37.0931 135.991 37.0931C131.465 37.0931 127.9 33.4971 127.9 28.8781C127.9 24.2901 131.496 20.6941 136.115 20.6941C137.727 20.6941 139.277 21.1901 140.548 22.0891V20.9421H144.454V37.0311C144.454 41.2781 141.695 43.6341 136.673 43.6341ZM136.58 33.7451C138.192 33.7451 139.556 33.1871 140.517 32.1641V25.6541C139.556 24.6621 138.161 24.0731 136.611 24.0731C133.852 24.0731 131.744 26.1501 131.744 28.8781C131.744 31.6371 133.852 33.7451 136.58 33.7451ZM147.867 37.0001V20.9421H151.804V22.3371C153.013 21.2211 154.594 20.6321 156.392 20.6321C160.112 20.6321 162.716 23.2671 162.716 27.0181V37.0001H158.81V27.6071C158.81 25.4061 157.415 24.0421 155.276 24.0421C153.788 24.0421 152.579 24.6621 151.804 25.7781V37.0001H147.867Z" fill="#1e1e1e"/>
<path d="M134.035 18.198C134.035 18.1091 134.021 18.0293 133.994 17.9587C133.969 17.8858 133.921 17.8197 133.851 17.7605C133.78 17.6989 133.681 17.6385 133.553 17.5793C133.426 17.5201 133.26 17.4585 133.058 17.3947C132.832 17.3218 132.618 17.2398 132.415 17.1486C132.215 17.0575 132.037 16.9515 131.882 16.8308C131.729 16.7077 131.608 16.5653 131.52 16.4035C131.433 16.2417 131.39 16.0537 131.39 15.8396C131.39 15.6322 131.435 15.4442 131.526 15.2756C131.618 15.1047 131.745 14.9589 131.909 14.8381C132.073 14.715 132.267 14.6205 132.49 14.5544C132.716 14.4883 132.963 14.4553 133.232 14.4553C133.599 14.4553 133.919 14.5214 134.192 14.6535C134.466 14.7857 134.678 14.9668 134.828 15.197C134.981 15.4271 135.057 15.6903 135.057 15.9865H134.039C134.039 15.8407 134.008 15.7131 133.946 15.6037C133.887 15.4921 133.796 15.4043 133.673 15.3405C133.552 15.2767 133.399 15.2448 133.215 15.2448C133.037 15.2448 132.889 15.2722 132.771 15.3269C132.652 15.3793 132.563 15.451 132.504 15.5422C132.445 15.6311 132.415 15.7313 132.415 15.843C132.415 15.9273 132.436 16.0036 132.477 16.072C132.52 16.1403 132.584 16.2041 132.668 16.2634C132.752 16.3226 132.856 16.3785 132.979 16.4309C133.102 16.4833 133.244 16.5345 133.406 16.5847C133.677 16.6667 133.916 16.759 134.121 16.8615C134.328 16.9641 134.501 17.0791 134.64 17.2067C134.779 17.3343 134.884 17.479 134.955 17.6408C135.025 17.8026 135.061 17.986 135.061 18.1911C135.061 18.4076 135.018 18.6013 134.934 18.7722C134.85 18.9431 134.728 19.0878 134.568 19.2063C134.409 19.3247 134.219 19.4148 133.998 19.4763C133.777 19.5378 133.529 19.5686 133.256 19.5686C133.01 19.5686 132.767 19.5367 132.528 19.4729C132.289 19.4068 132.071 19.3077 131.875 19.1755C131.681 19.0433 131.526 18.8747 131.41 18.6696C131.294 18.4646 131.236 18.2219 131.236 17.9416H132.265C132.265 18.0966 132.289 18.2276 132.336 18.3347C132.384 18.4418 132.451 18.5284 132.538 18.5944C132.627 18.6605 132.732 18.7084 132.853 18.738C132.976 18.7676 133.11 18.7824 133.256 18.7824C133.434 18.7824 133.579 18.7574 133.693 18.7072C133.81 18.6571 133.895 18.5876 133.95 18.4987C134.007 18.4099 134.035 18.3096 134.035 18.198ZM139.453 14.5236V19.5002H138.431V14.5236H139.453ZM140.984 14.5236V15.3269H136.924V14.5236H140.984ZM145.787 14.5236H146.809V17.8117C146.809 18.1945 146.727 18.517 146.563 18.779C146.401 19.0411 146.176 19.2382 145.889 19.3703C145.604 19.5025 145.276 19.5686 144.905 19.5686C144.533 19.5686 144.203 19.5025 143.914 19.3703C143.627 19.2382 143.401 19.0411 143.237 18.779C143.075 18.517 142.994 18.1945 142.994 17.8117V14.5236H144.02V17.8117C144.02 18.035 144.055 18.2173 144.126 18.3586C144.196 18.4999 144.298 18.6036 144.43 18.6696C144.564 18.7357 144.723 18.7688 144.905 18.7688C145.092 18.7688 145.25 18.7357 145.38 18.6696C145.512 18.6036 145.612 18.4999 145.681 18.3586C145.751 18.2173 145.787 18.035 145.787 17.8117V14.5236ZM150.651 19.5002H149.567L149.574 18.7004H150.651C150.92 18.7004 151.146 18.64 151.331 18.5192C151.515 18.3962 151.654 18.2173 151.748 17.9826C151.844 17.7479 151.891 17.4642 151.891 17.1315V16.8889C151.891 16.6337 151.864 16.4092 151.809 16.2155C151.757 16.0218 151.678 15.8589 151.574 15.7268C151.469 15.5946 151.34 15.4955 151.187 15.4294C151.035 15.361 150.859 15.3269 150.661 15.3269H149.547V14.5236H150.661C150.994 14.5236 151.298 14.5806 151.574 14.6945C151.852 14.8062 152.092 14.9668 152.295 15.1765C152.498 15.3861 152.654 15.6368 152.763 15.9284C152.875 16.2178 152.931 16.5402 152.931 16.8957V17.1315C152.931 17.4847 152.875 17.8072 152.763 18.0988C152.654 18.3905 152.498 18.6412 152.295 18.8508C152.094 19.0581 151.854 19.2188 151.574 19.3327C151.296 19.4444 150.988 19.5002 150.651 19.5002ZM150.148 14.5236V19.5002H149.123V14.5236H150.148ZM156.236 14.5236V19.5002H155.214V14.5236H156.236ZM162.754 16.8957V17.1315C162.754 17.5098 162.703 17.8493 162.6 18.1501C162.498 18.4509 162.353 18.7072 162.166 18.9191C161.98 19.1288 161.756 19.2894 161.496 19.4011C161.239 19.5127 160.953 19.5686 160.639 19.5686C160.326 19.5686 160.04 19.5127 159.781 19.4011C159.523 19.2894 159.3 19.1288 159.111 18.9191C158.922 18.7072 158.775 18.4509 158.67 18.1501C158.567 17.8493 158.516 17.5098 158.516 17.1315V16.8957C158.516 16.5152 158.567 16.1757 158.67 15.8772C158.772 15.5764 158.917 15.32 159.104 15.1081C159.293 14.8962 159.516 14.7344 159.774 14.6228C160.034 14.5111 160.32 14.4553 160.632 14.4553C160.946 14.4553 161.232 14.5111 161.49 14.6228C161.749 14.7344 161.973 14.8962 162.16 15.1081C162.349 15.32 162.495 15.5764 162.597 15.8772C162.702 16.1757 162.754 16.5152 162.754 16.8957ZM161.719 17.1315V16.8889C161.719 16.6245 161.695 16.3921 161.647 16.1916C161.599 15.9911 161.528 15.8225 161.435 15.6857C161.342 15.549 161.228 15.4465 161.093 15.3781C160.959 15.3075 160.805 15.2722 160.632 15.2722C160.459 15.2722 160.305 15.3075 160.17 15.3781C160.038 15.4465 159.925 15.549 159.832 15.6857C159.741 15.8225 159.671 15.9911 159.623 16.1916C159.576 16.3921 159.552 16.6245 159.552 16.8889V17.1315C159.552 17.3936 159.576 17.626 159.623 17.8288C159.671 18.0293 159.742 18.1991 159.835 18.3381C159.929 18.4748 160.043 18.5785 160.177 18.6491C160.312 18.7198 160.465 18.7551 160.639 18.7551C160.812 18.7551 160.966 18.7198 161.1 18.6491C161.234 18.5785 161.347 18.4748 161.438 18.3381C161.53 18.1991 161.599 18.0293 161.647 17.8288C161.695 17.626 161.719 17.3936 161.719 17.1315Z" fill="#1e1e1e"/>
</g>
</g>
<defs>
<clipPath id="clip0_32_880">
<rect width="164" height="50" fill="white" transform="translate(0 0.5)"/>
</clipPath>
</defs>
</svg>
