<svg width="192" height="51" viewBox="0 0 192 51" fill="none" xmlns="http://www.w3.org/2000/svg">
<g clip-path="url(#clip0_32_902)">
<path d="M8.51064 36.1426C8.51064 38.4831 6.59574 40.3979 4.25532 40.3979C1.91489 40.3979 1.24159e-06 38.4831 1.13928e-06 36.1426L0 5.0788C-1.0231e-07 2.73837 1.91489 0.823486 4.25532 0.823486C6.59574 0.823486 8.51064 2.73837 8.51064 5.0788V36.1426Z" fill="#1e1e1e"/>
<path d="M22.3426 46.2447C22.3426 48.5851 20.4277 50.5 18.0873 50.5C15.7469 50.5 13.832 48.5851 13.832 46.2447V15.1809C13.832 12.8404 15.7469 10.9255 18.0873 10.9255C20.4277 10.9255 22.3426 12.8404 22.3426 15.1809V46.2447Z" fill="#1e1e1e"/>
<path d="M36.1708 36.1426C36.1708 38.4831 34.2559 40.3979 31.9155 40.3979C29.5751 40.3979 27.6602 38.4831 27.6602 36.1426V5.0788C27.6602 2.73837 29.5751 0.823486 31.9155 0.823486C34.2559 0.823486 36.1708 2.73837 36.1708 5.0788V36.1426Z" fill="#1e1e1e"/>
<path d="M49.9989 46.2447C49.9989 48.5851 48.084 50.5 45.7436 50.5C43.4032 50.5 41.4883 48.5851 41.4883 46.2447V16.1809C41.4883 13.8404 43.4031 11.9255 45.7436 11.9255C48.084 11.9255 49.9989 13.8404 49.9989 16.1809V46.2447Z" fill="#1e1e1e"/>
<mask id="mask0_32_902" style="mask-type:luminance" maskUnits="userSpaceOnUse" x="65" y="0" width="127" height="51">
<path d="M192 0.5H65V50.5H192V0.5Z" fill="white"/>
</mask>
<g mask="url(#mask0_32_902)">
<path d="M80.2919 32.6439V36.9999H65.2109V13.8999H80.2919V18.2559H70.3259V23.3709H78.9719V27.5289H70.3259V32.6439H80.2919ZM89.0787 36.9999H84.0957V19.8069H88.2867L88.6827 22.1499C90.2997 20.4009 92.2137 19.5099 94.5567 19.5099C96.6687 19.5099 98.0877 20.1369 98.9787 21.3249C99.2427 21.6549 99.4407 21.9849 99.6057 22.3809C101.289 20.4339 103.203 19.5099 105.579 19.5099C107.757 19.5099 109.209 20.1369 110.1 21.3249C111.024 22.5459 111.288 23.9649 111.288 27.4629V36.9999H106.338V28.5849C106.338 26.6049 106.206 25.7469 105.678 25.0539C105.117 24.3939 104.358 24.1299 103.17 24.1299C102.081 24.1299 101.124 24.4599 100.134 25.2849C100.2 25.9119 100.2 26.6049 100.2 27.4629V36.9999H95.2167V28.5849C95.2167 26.6049 95.1177 25.7469 94.5567 25.0539C94.0287 24.3939 93.2697 24.1299 92.1477 24.1299C90.9267 24.1299 89.8047 24.5589 89.0787 25.3179V36.9999ZM123.498 37.2639C122.211 37.2639 120.825 37.0329 119.505 36.5379L115.71 36.9999V11.9199H120.693V22.0509C121.914 20.3679 123.564 19.4769 125.808 19.4769C129.636 19.4769 132.21 22.3479 132.21 27.7269C132.21 33.8649 128.712 37.2639 123.498 37.2639ZM120.693 26.1429V32.8089C121.452 33.1389 122.178 33.2709 122.937 33.2709C125.346 33.2709 127.029 31.6869 127.029 28.2219C127.029 25.3179 125.775 23.8989 123.96 23.8989C122.508 23.8989 121.452 24.6909 120.693 26.1429ZM140.351 36.9999H135.368V11.9199H140.351V36.9999ZM152.929 37.2639C146.659 37.2639 143.524 34.3599 143.524 28.3539C143.524 22.6119 147.418 19.4769 151.873 19.4769C156.592 19.4769 158.869 22.3149 158.869 27.2649C158.869 28.1889 158.803 29.0139 158.737 29.8389H148.606C149.101 32.4129 150.85 33.3039 154.051 33.3039C155.371 33.3039 156.724 33.1719 157.879 33.0069L157.648 36.9339C156.46 37.1319 154.843 37.2639 152.929 37.2639ZM151.741 23.1729C150.025 23.1729 148.771 24.3939 148.507 27.1329L154.15 26.8359C154.15 24.3279 153.391 23.1729 151.741 23.1729ZM167.196 36.9999H162.213V19.8069H166.404L166.8 22.1499C168.417 20.4009 170.331 19.5099 172.674 19.5099C174.786 19.5099 176.205 20.1369 177.096 21.3249C177.36 21.6549 177.558 21.9849 177.723 22.3809C179.406 20.4339 181.32 19.5099 183.696 19.5099C185.874 19.5099 187.326 20.1369 188.217 21.3249C189.141 22.5459 189.405 23.9649 189.405 27.4629V36.9999H184.455V28.5849C184.455 26.6049 184.323 25.7469 183.795 25.0539C183.234 24.3939 182.475 24.1299 181.287 24.1299C180.198 24.1299 179.241 24.4599 178.251 25.2849C178.317 25.9119 178.317 26.6049 178.317 27.4629V36.9999H173.334V28.5849C173.334 26.6049 173.235 25.7469 172.674 25.0539C172.146 24.3939 171.387 24.1299 170.265 24.1299C169.044 24.1299 167.922 24.5589 167.196 25.3179V36.9999Z" fill="#1e1e1e"/>
</g>
</g>
<defs>
<clipPath id="clip0_32_902">
<rect width="192" height="50" fill="white" transform="translate(0 0.5)"/>
</clipPath>
</defs>
</svg>
