<svg width="600" height="824" viewBox="0 0 600 824" fill="none" xmlns="http://www.w3.org/2000/svg">
<g clip-path="url(#clip0_38_83)">
<path d="M513.244 568.664H134.625C121.35 568.664 109.485 559.765 105.785 547.019L43.2592 332.1C43.1711 331.835 43.2299 331.571 43.4061 331.336C43.5823 331.131 43.8172 330.984 44.1109 330.984H561.702C581.496 330.984 595.916 349.809 590.689 368.928L542.26 546.52C538.648 559.559 526.753 568.664 513.244 568.664ZM45.2269 332.717L107.43 546.549C110.924 558.561 122.114 566.96 134.625 566.96H513.244C525.99 566.96 537.209 558.385 540.557 546.109L588.985 368.517C593.89 350.514 580.351 332.746 561.673 332.746H45.2269V332.717Z" fill="#575757"/>
<path d="M242.675 568.047L174.041 332.1C173.894 331.63 174.158 331.16 174.628 331.042C175.098 330.896 175.568 331.16 175.685 331.63L244.349 567.548C244.496 568.018 244.231 568.487 243.762 568.605C243.321 568.752 242.822 568.517 242.675 568.047Z" fill="#575757"/>
<path d="M297.915 806.579H262.027C250.573 806.579 240.529 799.266 237.034 788.37L166.256 568.076C166.109 567.636 166.373 567.137 166.814 566.99C167.284 566.843 167.753 567.107 167.9 567.548L238.679 787.841C241.938 798.032 251.336 804.875 262.027 804.875H297.915C298.385 804.875 298.767 805.257 298.767 805.727C298.767 806.197 298.385 806.579 297.915 806.579Z" fill="#575757"/>
<path d="M505.785 806.579H468.78C457.327 806.579 447.283 799.266 443.788 788.37L373.01 568.076C372.863 567.636 373.127 567.137 373.568 566.99C374.037 566.843 374.507 567.107 374.654 567.548L445.432 787.841C448.692 798.032 458.09 804.875 468.78 804.875H505.785C506.255 804.875 506.637 805.257 506.637 805.727C506.666 806.197 506.255 806.579 505.785 806.579Z" fill="#575757"/>
<path d="M540.765 805.727C540.765 815.389 532.924 823.23 523.261 823.23C513.599 823.23 505.758 815.389 505.758 805.727C505.758 796.064 513.599 788.223 523.261 788.223C532.924 788.223 540.765 796.064 540.765 805.727Z" fill="#1E1E1E"/>
<path d="M564.906 806.579H527.902C516.448 806.579 506.404 799.266 502.909 788.37L432.131 568.076C431.984 567.636 432.248 567.137 432.689 566.99C433.159 566.843 433.628 567.107 433.775 567.548L504.554 787.841C507.813 798.032 517.211 804.875 527.902 804.875H564.906C565.376 804.875 565.758 805.257 565.758 805.727C565.787 806.197 565.405 806.579 564.906 806.579Z" fill="#575757"/>
<path d="M599.882 805.727C599.882 815.389 592.041 823.23 582.379 823.23C572.716 823.23 564.875 815.389 564.875 805.727C564.875 796.064 572.716 788.223 582.379 788.223C592.041 788.223 599.882 796.064 599.882 805.727Z" fill="#575757"/>
<path d="M332.921 805.727C332.921 815.389 325.08 823.23 315.418 823.23C305.755 823.23 297.914 815.389 297.914 805.727C297.914 796.064 305.755 788.223 315.418 788.223C325.08 788.223 332.921 796.064 332.921 805.727Z" fill="#575757"/>
<path d="M360.321 806.579H324.433C312.979 806.579 302.935 799.266 299.44 788.37L228.662 568.076C228.515 567.636 228.779 567.137 229.22 566.99C229.69 566.843 230.16 567.107 230.307 567.548L301.085 787.841C304.345 798.032 313.743 804.875 324.433 804.875H360.321C360.791 804.875 361.173 805.257 361.173 805.727C361.202 806.197 360.791 806.579 360.321 806.579Z" fill="#575757"/>
<path d="M395.359 805.727C395.359 815.389 387.517 823.23 377.855 823.23C368.193 823.23 360.352 815.389 360.352 805.727C360.352 796.064 368.193 788.223 377.855 788.223C387.517 788.223 395.359 796.064 395.359 805.727Z" fill="#1E1E1E"/>
<path d="M481.497 389.31V505.609C481.497 512.335 476.034 517.797 469.309 517.797C462.584 517.797 457.121 512.335 457.121 505.609V389.31C457.121 382.584 462.584 377.122 469.309 377.122C476.064 377.151 481.497 382.584 481.497 389.31Z" fill="#575757"/>
<path d="M422.231 389.31V505.609C422.231 512.335 416.769 517.797 410.043 517.797C403.318 517.797 397.855 512.335 397.855 505.609V389.31C397.855 382.584 403.318 377.122 410.043 377.122C416.798 377.151 422.231 382.584 422.231 389.31Z" fill="#575757"/>
<path d="M362.966 389.31V505.609C362.966 512.335 357.503 517.797 350.778 517.797C344.052 517.797 338.59 512.335 338.59 505.609V389.31C338.59 382.584 344.052 377.122 350.778 377.122C357.503 377.151 362.966 382.584 362.966 389.31Z" fill="#575757"/>
<path d="M303.7 389.31V505.609C303.7 512.335 298.237 517.797 291.512 517.797C284.787 517.797 279.324 512.335 279.324 505.609V389.31C279.324 382.584 284.787 377.122 291.512 377.122C298.237 377.151 303.7 382.584 303.7 389.31Z" fill="#575757"/>
<path d="M174.861 332.717H44.0825C43.7301 332.717 43.4364 332.511 43.2896 332.188L1.70362 236.534C-4.11137 223.172 5.66837 208.194 20.2939 208.194H111.66C119.942 208.194 127.284 213.128 130.426 220.793L175.683 331.512C175.801 331.777 175.771 332.07 175.595 332.305C175.419 332.57 175.155 332.717 174.861 332.717ZM44.6406 330.984H173.569L128.811 221.439C125.962 214.449 119.207 209.926 111.66 209.926H20.2939C6.93122 209.926 -2.02619 223.612 3.28952 235.859L44.6406 330.984Z" fill="#575757"/>
<path d="M291.51 294.684V331.836H193.742V294.684C193.742 292.335 195.651 290.426 198.001 290.426H287.281C289.631 290.426 291.51 292.335 291.51 294.684Z" fill="#EFF0F4"/>
<path d="M292.395 332.717H192.895V294.684C192.895 291.865 195.185 289.574 198.005 289.574H287.285C290.104 289.574 292.395 291.865 292.395 294.684V332.717ZM194.598 330.984H290.662V294.684C290.662 292.805 289.135 291.307 287.285 291.307H198.005C196.125 291.307 194.627 292.834 194.627 294.684V330.984H194.598Z" fill="#575757"/>
<path d="M508.986 291.307V331.835H308.457V291.307C308.457 285.991 312.774 281.674 318.09 281.674H499.353C504.668 281.674 508.986 285.991 508.986 291.307Z" fill="#EFF0F4"/>
<path d="M509.869 332.717H307.637V291.307C307.637 285.521 312.336 280.822 318.121 280.822H499.384C505.17 280.822 509.869 285.521 509.869 291.307V332.717ZM309.34 330.984H508.136V291.307C508.136 286.49 504.201 282.555 499.384 282.555H318.121C313.305 282.555 309.369 286.49 309.369 291.307V330.984H309.34Z" fill="#575757"/>
<path d="M422.23 267.606V331.836H269.777V267.606C269.777 263.935 272.744 260.999 276.385 260.999H415.622C419.264 260.999 422.23 263.965 422.23 267.606Z" fill="#1E1E1E"/>
<path d="M423.115 332.717H268.93V267.606C268.93 263.465 272.278 260.117 276.419 260.117H415.655C419.767 260.117 423.144 263.465 423.144 267.606V332.717H423.115ZM270.633 330.984H421.382V267.606C421.382 264.435 418.798 261.85 415.626 261.85H276.389C273.218 261.85 270.633 264.435 270.633 267.606V330.984Z" fill="#575757"/>
<path d="M96.5933 211.718C96.5933 214.537 94.3026 216.799 91.5126 216.799H24.2292C21.4098 216.799 19.1484 214.508 19.1484 211.718C19.1484 208.899 21.4392 206.637 24.2292 206.637H91.5126C94.3026 206.608 96.5933 208.899 96.5933 211.718Z" fill="#EFF0F4"/>
<path d="M91.4814 217.65H24.2274C20.9382 217.65 18.2656 214.978 18.2656 211.689C18.2656 208.399 20.9382 205.727 24.2274 205.727H91.5108C94.8 205.727 97.4726 208.399 97.4726 211.689C97.4726 214.978 94.7707 217.65 91.4814 217.65ZM24.2274 207.489C21.9073 207.489 19.9984 209.398 19.9984 211.718C19.9984 214.038 21.9073 215.947 24.2274 215.947H91.5108C93.8309 215.947 95.7398 214.038 95.7398 211.718C95.7398 209.398 93.8309 207.489 91.5108 207.489H24.2274Z" fill="#575757"/>
<path d="M387.576 19.9331L351.664 66.5988L398.328 102.512L434.243 55.8463L387.576 19.9331Z" fill="#1E1E1E"/>
<path d="M383.118 0.000488281L324.234 0.294196L324.528 59.1781L383.412 58.8844L383.118 0.000488281Z" fill="#EFF0F4"/>
</g>
<defs>
<clipPath id="clip0_38_83">
<rect width="600" height="824" fill="white"/>
</clipPath>
</defs>
</svg>
