<svg width="18" height="19" viewBox="0 0 18 19" fill="none" xmlns="http://www.w3.org/2000/svg">
<path d="M8.55 18.1999H8.61667C9.36661 18.1999 9.74159 18.1999 10.0045 18.0089C10.0893 17.9472 10.164 17.8726 10.2257 17.7877C10.4167 17.5248 10.4167 17.1499 10.4167 16.3999V11.3249H11.5625C12.1265 11.3249 12.4085 11.3249 12.6236 11.2144C12.8094 11.119 12.9607 10.9677 13.0562 10.7818C13.1667 10.5667 13.1667 10.2847 13.1667 9.72079C13.1667 9.1568 13.1667 8.87481 13.0562 8.65971C12.9607 8.47386 12.8094 8.32257 12.6236 8.2271C12.4085 8.11662 12.1265 8.11662 11.5625 8.11662H10.4167V6.28329C10.4167 5.93439 10.4167 5.75995 10.4597 5.618C10.5567 5.2984 10.8068 5.0483 11.1264 4.95135C11.2683 4.90829 11.4428 4.90829 11.7917 4.90829C12.1406 4.90829 12.315 4.90829 12.457 4.86523C12.7766 4.76828 13.0267 4.51817 13.1236 4.19857C13.1667 4.05662 13.1667 3.88218 13.1667 3.53329V3.12588C13.1667 2.72937 13.1667 2.53111 13.1112 2.37163C13.0108 2.0828 12.7838 1.85578 12.495 1.75538C12.3355 1.69995 12.1372 1.69995 11.7407 1.69995C10.353 1.69995 9.65907 1.69995 9.10089 1.89397C8.08998 2.24534 7.29539 3.03993 6.94401 4.05084C6.75 4.60902 6.75 5.30291 6.75 6.69069V8.11662H5.60417C5.04018 8.11662 4.75819 8.11662 4.5431 8.2271C4.35724 8.32257 4.20595 8.47386 4.11048 8.65971C4 8.87481 4 9.1568 4 9.72079C4 10.2847 4 10.5667 4.11048 10.7818C4.20595 10.9677 4.35724 11.119 4.5431 11.2144C4.75819 11.3249 5.04018 11.3249 5.60417 11.3249H6.75V16.3999C6.75 17.1499 6.75 17.5248 6.94098 17.7877C7.00266 17.8726 7.07732 17.9472 7.16221 18.0089C7.42508 18.1999 7.80005 18.1999 8.55 18.1999Z" stroke="#1E1E1E" stroke-width="1.5" stroke-linejoin="round"/>
</svg>
