<svg width="206" height="52" viewBox="0 0 206 52" fill="none" xmlns="http://www.w3.org/2000/svg">
<g clip-path="url(#clip0_32_891)">
<path fill-rule="evenodd" clip-rule="evenodd" d="M40.0781 28.553V45.2912L48.9953 40.1602V23.4221L40.0781 28.553Z" fill="#1e1e1e"/>
<path opacity="0.5" fill-rule="evenodd" clip-rule="evenodd" d="M22.3378 10.9132L9.58126 18.2734L0.664062 13.1425L22.3378 0.651367L37.589 9.46241L28.7072 14.5933L22.3378 10.9132Z" fill="#1e1e1e"/>
<path opacity="0.5" fill-rule="evenodd" clip-rule="evenodd" d="M25.6055 36.8957L40.0764 28.5532L48.9759 23.4046L40.0764 18.2737L25.6055 26.6516V36.8957Z" fill="#1e1e1e"/>
<path fill-rule="evenodd" clip-rule="evenodd" d="M0.664062 13.1426V38.1603L22.3378 50.6515V40.3896L9.58126 33.0294V18.2736L0.664062 13.1426Z" fill="#1e1e1e"/>
<mask id="mask0_32_891" style="mask-type:luminance" maskUnits="userSpaceOnUse" x="65" y="0" width="141" height="51">
<path d="M206 0.5H65V50.5H206V0.5Z" fill="white"/>
</mask>
<g mask="url(#mask0_32_891)">
<path d="M83.2876 36.466C81.7066 37.086 79.7846 37.272 77.7386 37.272C77.4286 37.272 77.1186 37.272 76.8086 37.241C70.0816 36.931 65.1836 32.901 65.1836 25.771C65.1836 18.579 70.4226 14.177 77.4286 14.177C79.5676 14.177 81.6446 14.58 83.1946 15.324L82.9156 20.625C81.6446 20.036 79.8776 19.602 77.9556 19.602C73.2126 19.602 70.3296 22.175 70.3296 26.081C70.3296 29.801 72.5616 32.157 76.3746 32.591C77.0566 32.653 77.8006 32.653 78.4826 32.622V26.608H83.2876V36.466ZM86.4825 36.9V20.067H91.1945V22.299H91.3185C92.1865 20.501 94.2325 19.664 96.9605 19.664L96.6505 25.151C92.6825 24.996 91.2875 26.577 91.2875 30.483V36.9H86.4825ZM116.241 42.79V20.067H120.953V22.082H121.077C122.038 20.594 123.929 19.664 126.223 19.664C130.78 19.664 134.19 22.919 134.19 28.499C134.19 34.079 130.501 37.303 126.192 37.303C124.022 37.303 122.1 36.342 121.139 34.575H121.046V42.79H116.241ZM125.169 32.87C127.401 32.87 129.137 31.134 129.137 28.716C129.137 26.298 127.401 24.593 125.169 24.593C122.906 24.593 121.139 26.205 121.139 28.716C121.139 31.196 122.906 32.87 125.169 32.87ZM170.366 36.559C168.878 37.086 167.204 37.303 165.375 37.303C159.299 37.303 155.424 34.203 155.424 28.406C155.424 23.384 158.71 19.664 163.763 19.664C168.909 19.664 171.482 23.694 171.482 28.251C171.482 28.933 171.451 29.677 171.327 30.235H160.787C161.407 32.374 163.329 33.335 166.243 33.335C167.669 33.335 168.847 33.149 169.963 32.746L170.366 36.559ZM163.825 24.128C162.275 24.128 160.88 25.027 160.539 27.29H166.956C166.863 25.523 165.623 24.128 163.825 24.128ZM174.124 36.9V20.067H178.836V22.299H178.96C179.828 20.501 181.874 19.664 184.602 19.664L184.292 25.151C180.324 24.996 178.929 26.577 178.929 30.483V36.9H174.124Z" fill="#1e1e1e"/>
<path d="M108.065 26.2051C108.065 25.2131 107.073 24.5931 104.996 24.5931C102.981 24.5931 101.09 25.1821 99.6018 25.8641L99.2608 21.0591C100.718 20.2841 102.919 19.6641 105.492 19.6641C110.762 19.6641 113.025 22.1131 113.025 26.6391V36.9001H108.127V34.8541C106.887 36.3421 105.461 37.3031 102.981 37.3031C100.191 37.3031 98.1758 35.8461 98.1758 33.0251C98.1758 29.4291 101.059 28.3751 104.655 27.7861C106.019 27.5381 106.763 27.3521 107.414 27.1041C107.941 26.8871 108.065 26.6391 108.065 26.2051ZM108.127 29.5841C107.631 29.8321 106.825 30.1421 105.802 30.3591C104.19 30.7311 103.198 31.1341 103.198 32.5291C103.198 33.6451 104.128 34.1721 105.306 34.1721C106.67 34.1721 107.662 33.3351 108.127 32.3121V29.5841ZM148.142 28.3441C148.142 26.0501 147.181 24.5001 144.918 24.5001C142.686 24.5001 141.663 26.0191 141.663 28.3751V36.9001H136.858V13.3401H141.57V22.0201H141.694C142.686 20.5631 144.205 19.6641 146.592 19.6641C150.777 19.6641 152.916 22.4541 152.916 26.5461V36.9001H148.142V28.3441ZM185.938 36.9001V33.2731L193.471 24.6551H186.279V20.0671H199.33V24.3761L191.797 32.7151H199.485V36.9001H185.938Z" fill="#1e1e1e"/>
</g>
</g>
<defs>
<clipPath id="clip0_32_891">
<rect width="206" height="51" fill="white" transform="translate(0 0.5)"/>
</clipPath>
</defs>
</svg>
