<svg width="23" height="26" viewBox="0 0 23 26" fill="none" xmlns="http://www.w3.org/2000/svg">
<path d="M11.4241 1C4.97582 1 -0.25176 6.18919 1.04574 12.6757C1.96713 17.2819 6.81351 21.561 9.54577 23.6548C10.2703 24.21 10.6326 24.4876 11.1633 24.5574C11.3145 24.5773 11.5337 24.5773 11.6849 24.5574C12.2157 24.4876 12.578 24.21 13.3025 23.6548C16.0348 21.5611 20.8814 17.2819 21.8025 12.6757C23.0996 6.18919 17.8724 1 11.4241 1Z" stroke="#1E1E1E" stroke-width="1.5" stroke-linejoin="round"/>
<path d="M15.3159 11.573C15.3159 13.7224 13.5734 15.4649 11.424 15.4649C9.27453 15.4649 7.53207 13.7224 7.53207 11.573C7.53207 9.42354 9.27453 7.68108 11.424 7.68108C13.5734 7.68108 15.3159 9.42354 15.3159 11.573Z" stroke="#1E1E1E" stroke-width="1.5" stroke-linejoin="round"/>
</svg>
