<svg width="31" height="27" viewBox="0 0 31 27" fill="none" xmlns="http://www.w3.org/2000/svg">
<path d="M1 10.5C1 6.75027 1 4.8754 1.95492 3.56107C2.26331 3.1366 2.6366 2.76331 3.06107 2.45492C4.3754 1.5 6.25027 1.5 10 1.5H20.8C24.5497 1.5 26.4246 1.5 27.7389 2.45492C28.1634 2.76331 28.5367 3.1366 28.8451 3.56107C29.8 4.8754 29.8 6.75027 29.8 10.5V16.5C29.8 20.2497 29.8 22.1246 28.8451 23.4389C28.5367 23.8634 28.1634 24.2367 27.7389 24.5451C26.4246 25.5 24.5497 25.5 20.8 25.5H10C6.25027 25.5 4.3754 25.5 3.06107 24.5451C2.6366 24.2367 2.26331 23.8634 1.95492 23.4389C1 22.1246 1 20.2497 1 16.5V10.5Z" stroke="#1E1E1E" stroke-width="2" stroke-linejoin="round"/>
<path d="M1 7.1001L9.87511 14.0026C12.2247 15.83 13.3995 16.7437 14.7415 16.9222C15.179 16.9803 15.6223 16.9803 16.0598 16.9221C17.4017 16.7436 18.5765 15.8299 20.926 14.0024L29.8 7.1001" stroke="#1E1E1E" stroke-width="2" stroke-linejoin="round"/>
</svg>
