<svg width="134" height="24" viewBox="0 0 134 24" fill="none" xmlns="http://www.w3.org/2000/svg">
<path d="M9.39669 5.67539C9.94257 3.98251 10.2155 3.13607 10.685 3.01529C10.8288 2.9783 10.9797 2.9783 11.1235 3.01529C11.593 3.13607 11.8659 3.98251 12.4118 5.67539L13.2599 8.30546C13.4111 8.77439 13.4867 9.00885 13.6515 9.16403C13.7053 9.21472 13.7654 9.25843 13.8301 9.29411C14.0284 9.40334 14.2747 9.40334 14.7674 9.40334H17.3647C19.056 9.40334 19.9017 9.40334 20.162 9.80285C20.242 9.92552 20.2901 10.0662 20.3019 10.2122C20.3405 10.6875 19.6717 11.205 18.3341 12.2401L16.168 13.9163C15.7915 14.2077 15.6032 14.3533 15.5131 14.5539C15.4836 14.6194 15.4622 14.6884 15.4495 14.7592C15.4107 14.9756 15.4837 15.2021 15.6298 15.6552L16.4985 18.3493C17.0419 20.0344 17.3136 20.877 17.004 21.2492C16.9091 21.3632 16.787 21.4514 16.6489 21.5056C16.1983 21.6824 15.484 21.1594 14.0553 20.1135L11.8399 18.4916C11.4404 18.1991 11.2407 18.0529 11.0152 18.0242C10.9415 18.0149 10.867 18.0149 10.7933 18.0242C10.5678 18.0529 10.3681 18.1991 9.96856 18.4916L7.75323 20.1135C6.32455 21.1594 5.61021 21.6824 5.15955 21.5056C5.02149 21.4514 4.89936 21.3632 4.80451 21.2492C4.49489 20.877 4.76658 20.0344 5.30998 18.3493L6.18377 15.6394C6.32782 15.1927 6.39985 14.9693 6.36264 14.7553C6.35047 14.6853 6.32986 14.617 6.30126 14.5519C6.21384 14.353 6.03026 14.2068 5.66311 13.9143L3.54395 12.2263C2.24686 11.1931 1.59832 10.6766 1.64062 10.2048C1.65362 10.0598 1.70239 9.92024 1.78257 9.79872C2.04342 9.40334 2.87257 9.40334 4.53085 9.40334H7.04106C7.53376 9.40334 7.78011 9.40334 7.97838 9.29411C8.04315 9.25843 8.10317 9.21472 8.15701 9.16403C8.32181 9.00885 8.39742 8.77438 8.54862 8.30546L9.39669 5.67539Z" fill="#1E1E1E"/>
<path d="M37.3967 5.67539C37.9426 3.98251 38.2155 3.13607 38.685 3.01529C38.8288 2.9783 38.9797 2.9783 39.1235 3.01529C39.593 3.13607 39.8659 3.98251 40.4118 5.67539L41.2599 8.30546C41.4111 8.77439 41.4867 9.00885 41.6515 9.16403C41.7053 9.21472 41.7654 9.25843 41.8301 9.29411C42.0284 9.40334 42.2747 9.40334 42.7674 9.40334H45.3647C47.056 9.40334 47.9017 9.40334 48.162 9.80285C48.242 9.92552 48.2901 10.0662 48.3019 10.2122C48.3405 10.6875 47.6717 11.205 46.3341 12.2401L44.168 13.9163C43.7915 14.2077 43.6032 14.3533 43.5131 14.5539C43.4836 14.6194 43.4622 14.6884 43.4495 14.7592C43.4107 14.9756 43.4837 15.2021 43.6298 15.6552L44.4985 18.3493C45.0419 20.0344 45.3136 20.877 45.004 21.2492C44.9091 21.3632 44.787 21.4514 44.6489 21.5056C44.1983 21.6824 43.484 21.1594 42.0553 20.1135L39.8399 18.4916C39.4404 18.1991 39.2407 18.0529 39.0152 18.0242C38.9415 18.0149 38.867 18.0149 38.7933 18.0242C38.5678 18.0529 38.3681 18.1991 37.9686 18.4916L35.7532 20.1135C34.3245 21.1594 33.6102 21.6824 33.1595 21.5056C33.0215 21.4514 32.8994 21.3632 32.8045 21.2492C32.4949 20.877 32.7666 20.0344 33.31 18.3493L34.1838 15.6394C34.3278 15.1927 34.3998 14.9693 34.3626 14.7553C34.3505 14.6853 34.3298 14.617 34.3012 14.5519C34.2138 14.353 34.0303 14.2068 33.6631 13.9143L31.5439 12.2263C30.2469 11.1931 29.5983 10.6766 29.6406 10.2048C29.6536 10.0598 29.7024 9.92024 29.7826 9.79872C30.0434 9.40334 30.8726 9.40334 32.5308 9.40334H35.041C35.5338 9.40334 35.7801 9.40334 35.9784 9.29411C36.0431 9.25843 36.1032 9.21472 36.157 9.16403C36.3218 9.00885 36.3974 8.77438 36.5486 8.30546L37.3967 5.67539Z" fill="#1E1E1E"/>
<path d="M65.3967 5.67539C65.9426 3.98251 66.2155 3.13607 66.685 3.01529C66.8288 2.9783 66.9797 2.9783 67.1235 3.01529C67.593 3.13607 67.8659 3.98251 68.4118 5.67539L69.2599 8.30546C69.4111 8.77439 69.4867 9.00885 69.6515 9.16403C69.7053 9.21472 69.7654 9.25843 69.8301 9.29411C70.0284 9.40334 70.2747 9.40334 70.7674 9.40334H73.3647C75.056 9.40334 75.9017 9.40334 76.162 9.80285C76.242 9.92552 76.2901 10.0662 76.3019 10.2122C76.3405 10.6875 75.6717 11.205 74.3341 12.2401L72.168 13.9163C71.7915 14.2077 71.6032 14.3533 71.5131 14.5539C71.4836 14.6194 71.4622 14.6884 71.4495 14.7592C71.4107 14.9756 71.4837 15.2021 71.6298 15.6552L72.4985 18.3493C73.0419 20.0344 73.3136 20.877 73.004 21.2492C72.9091 21.3632 72.787 21.4514 72.6489 21.5056C72.1983 21.6824 71.484 21.1594 70.0553 20.1135L67.8399 18.4916C67.4404 18.1991 67.2407 18.0529 67.0152 18.0242C66.9415 18.0149 66.867 18.0149 66.7933 18.0242C66.5678 18.0529 66.3681 18.1991 65.9686 18.4916L63.7532 20.1135C62.3245 21.1594 61.6102 21.6824 61.1595 21.5056C61.0215 21.4514 60.8994 21.3632 60.8045 21.2492C60.4949 20.877 60.7666 20.0344 61.31 18.3493L62.1838 15.6394C62.3278 15.1927 62.3998 14.9693 62.3626 14.7553C62.3505 14.6853 62.3298 14.617 62.3012 14.5519C62.2138 14.353 62.0303 14.2068 61.6631 13.9143L59.5439 12.2263C58.2469 11.1931 57.5983 10.6766 57.6406 10.2048C57.6536 10.0598 57.7024 9.92024 57.7826 9.79872C58.0434 9.40334 58.8726 9.40334 60.5308 9.40334H63.041C63.5338 9.40334 63.7801 9.40334 63.9784 9.29411C64.0431 9.25843 64.1032 9.21472 64.157 9.16403C64.3218 9.00885 64.3974 8.77438 64.5486 8.30546L65.3967 5.67539Z" fill="#1E1E1E"/>
<path d="M93.3967 5.67539C93.9426 3.98251 94.2155 3.13607 94.685 3.01529C94.8288 2.9783 94.9797 2.9783 95.1235 3.01529C95.593 3.13607 95.8659 3.98251 96.4118 5.67539L97.2599 8.30546C97.4111 8.77439 97.4867 9.00885 97.6515 9.16403C97.7053 9.21472 97.7654 9.25843 97.8301 9.29411C98.0284 9.40334 98.2747 9.40334 98.7674 9.40334H101.365C103.056 9.40334 103.902 9.40334 104.162 9.80285C104.242 9.92552 104.29 10.0662 104.302 10.2122C104.341 10.6875 103.672 11.205 102.334 12.2401L100.168 13.9163C99.7915 14.2077 99.6032 14.3533 99.5131 14.5539C99.4836 14.6194 99.4622 14.6884 99.4495 14.7592C99.4107 14.9756 99.4837 15.2021 99.6298 15.6552L100.499 18.3493C101.042 20.0344 101.314 20.877 101.004 21.2492C100.909 21.3632 100.787 21.4514 100.649 21.5056C100.198 21.6824 99.484 21.1594 98.0553 20.1135L95.8399 18.4916C95.4404 18.1991 95.2407 18.0529 95.0152 18.0242C94.9415 18.0149 94.867 18.0149 94.7933 18.0242C94.5678 18.0529 94.3681 18.1991 93.9686 18.4916L91.7532 20.1135C90.3245 21.1594 89.6102 21.6824 89.1595 21.5056C89.0215 21.4514 88.8994 21.3632 88.8045 21.2492C88.4949 20.877 88.7666 20.0344 89.31 18.3493L90.1838 15.6394C90.3278 15.1927 90.3998 14.9693 90.3626 14.7553C90.3505 14.6853 90.3298 14.617 90.3012 14.5519C90.2138 14.353 90.0303 14.2068 89.6631 13.9143L87.5439 12.2263C86.2469 11.1931 85.5983 10.6766 85.6406 10.2048C85.6536 10.0598 85.7024 9.92024 85.7826 9.79872C86.0434 9.40334 86.8726 9.40334 88.5308 9.40334H91.041C91.5338 9.40334 91.7801 9.40334 91.9784 9.29411C92.0431 9.25843 92.1032 9.21472 92.157 9.16403C92.3218 9.00885 92.3974 8.77438 92.5486 8.30546L93.3967 5.67539Z" fill="#1E1E1E"/>
<path d="M121.397 5.67539C121.943 3.98251 122.216 3.13607 122.685 3.01529C122.829 2.9783 122.98 2.9783 123.124 3.01529C123.593 3.13607 123.866 3.98251 124.412 5.67539L125.26 8.30546C125.411 8.77439 125.487 9.00885 125.652 9.16403C125.705 9.21472 125.765 9.25843 125.83 9.29411C126.028 9.40334 126.275 9.40334 126.768 9.40334H129.365C131.056 9.40334 131.902 9.40334 132.162 9.80285C132.242 9.92552 132.29 10.0662 132.302 10.2122C132.341 10.6875 131.672 11.205 130.334 12.2401L128.168 13.9163C127.792 14.2077 127.603 14.3533 127.513 14.5539C127.484 14.6194 127.462 14.6884 127.45 14.7592C127.411 14.9756 127.484 15.2021 127.63 15.6552L128.499 18.3493C129.042 20.0344 129.314 20.877 129.004 21.2492C128.909 21.3632 128.787 21.4514 128.649 21.5056C128.198 21.6824 127.484 21.1594 126.055 20.1135L123.84 18.4916C123.441 18.1991 123.241 18.0529 123.015 18.0242C122.942 18.0149 122.867 18.0149 122.793 18.0242C122.568 18.0529 122.368 18.1991 121.969 18.4916L119.753 20.1135C118.325 21.1594 117.61 21.6824 117.16 21.5056C117.022 21.4514 116.899 21.3632 116.805 21.2492C116.495 20.877 116.767 20.0344 117.31 18.3493L118.184 15.6394C118.328 15.1927 118.4 14.9693 118.363 14.7553C118.351 14.6853 118.33 14.617 118.301 14.5519C118.214 14.353 118.03 14.2068 117.663 13.9143L115.544 12.2263C114.247 11.1931 113.598 10.6766 113.641 10.2048C113.654 10.0598 113.702 9.92024 113.783 9.79872C114.044 9.40334 114.873 9.40334 116.531 9.40334H119.041C119.534 9.40334 119.78 9.40334 119.978 9.29411C120.043 9.25843 120.103 9.21472 120.157 9.16403C120.322 9.00885 120.398 8.77439 120.549 8.30546L121.397 5.67539Z" fill="#1E1E1E" fill-opacity="0.1"/>
</svg>
