<svg width="20" height="20" viewBox="0 0 20 20" fill="none" xmlns="http://www.w3.org/2000/svg">
<g clip-path="url(#clip0_59_56)">
<mask id="mask0_59_56" style="mask-type:luminance" maskUnits="userSpaceOnUse" x="0" y="0" width="20" height="20">
<path d="M20 0H0V20H20V0Z" fill="white"/>
</mask>
<g mask="url(#mask0_59_56)">
<path d="M4.5 1H1L15.5 19H19L4.5 1Z" stroke="#1E1E1E" stroke-width="1.5" stroke-linecap="round" stroke-linejoin="round"/>
<path d="M0.866117 17.3661C0.377961 17.8543 0.377961 18.6457 0.866117 19.1339C1.35427 19.622 2.14573 19.622 2.63388 19.1339L0.866117 17.3661ZM19.1339 2.63388C19.622 2.14573 19.622 1.35427 19.1339 0.866117C18.6457 0.377961 17.8543 0.377961 17.3661 0.866117L19.1339 2.63388ZM2.63388 19.1339L9.9133 11.8545L8.14553 10.0867L0.866117 17.3661L2.63388 19.1339ZM11.8545 9.9133L19.1339 2.63388L17.3661 0.866117L10.0867 8.14553L11.8545 9.9133Z" fill="#1E1E1E"/>
</g>
</g>
<defs>
<clipPath id="clip0_59_56">
<rect width="20" height="20" fill="white"/>
</clipPath>
</defs>
</svg>
